<?xml version="1.0" standalone="no"?>
<!DOCTYPE svg PUBLIC "-//W3C//DTD SVG 20010904//EN"
 "http://www.w3.org/TR/2001/REC-SVG-20010904/DTD/svg10.dtd">
<svg version="1.0" xmlns="http://www.w3.org/2000/svg"
 width="1181.000000pt" height="1181.000000pt" viewBox="0 0 1181.000000 1181.000000"
 preserveAspectRatio="xMidYMid meet">

<g transform="translate(0.000000,1181.000000) scale(0.100000,-0.100000)"
fill="#000000" stroke="none">
<path d="M5400 9430 c-689 -44 -1371 -299 -1935 -724 -314 -236 -606 -543
-824 -866 -451 -667 -663 -1432 -622 -2237 34 -642 234 -1255 588 -1797 35
-54 63 -99 61 -100 -2 -2 -61 -36 -131 -76 l-128 -73 -54 53 -54 53 -78 -71
c-43 -39 -102 -95 -130 -124 l-53 -54 60 -59 c76 -75 81 -108 20 -126 l-40
-12 0 -135 0 -134 24 6 c13 3 31 9 40 12 14 5 16 -13 16 -173 l0 -178 102
-102 103 -103 192 52 193 51 66 -63 66 -63 114 114 114 114 0 377 c0 208 4
378 8 378 5 0 16 -8 25 -18 15 -17 17 -61 17 -430 l0 -411 180 102 179 102 1
163 0 162 25 0 25 0 2 -264 3 -265 155 89 c85 49 160 90 165 90 6 0 44 -25 85
-55 41 -30 79 -55 85 -55 5 0 54 -44 107 -97 l98 -98 125 125 c69 69 125 129
125 135 0 6 -25 35 -55 65 -54 53 -55 55 -55 112 0 55 1 58 28 64 15 4 106 28
202 54 168 45 175 48 178 73 3 25 7 27 53 27 l49 0 0 -213 0 -212 103 -103
102 -102 278 75 c153 41 280 75 283 75 2 0 4 108 4 240 l0 240 55 0 55 0 0
-218 0 -217 110 -110 110 -110 103 103 102 102 103 -102 102 -103 125 125 124
124 3 -136 3 -137 183 106 182 106 0 234 0 233 50 0 50 0 0 -198 0 -197 99
-99 100 -100 43 11 c24 5 91 23 151 39 l107 28 70 -69 70 -70 95 95 96 96 97
-93 97 -93 112 112 113 113 0 377 c0 208 4 378 8 378 5 0 16 -8 25 -18 15 -16
17 -64 19 -429 l3 -410 177 101 178 101 0 308 c0 254 2 307 14 307 34 0 36
-24 38 -423 l3 -396 180 103 180 103 3 369 2 369 -100 100 -100 100 -151 -39
-151 -39 -55 55 -55 56 50 74 c332 492 528 1025 604 1643 20 159 16 659 -6
830 -108 841 -478 1587 -1077 2170 -521 507 -1159 839 -1869 974 -248 47 -645
69 -920 51z m527 -161 c1394 -115 2566 -1025 3019 -2343 80 -234 152 -560 169
-771 4 -44 9 -91 11 -105 6 -39 5 -447 -1 -515 -55 -556 -185 -987 -433 -1435
-132 -237 -287 -455 -340 -477 l-35 -15 -71 71 -71 71 -76 -76 -77 -77 5 80
c4 52 2 87 -6 102 -15 28 -69 61 -98 61 -13 0 -23 6 -23 13 0 23 -47 59 -80
62 -37 3 -59 29 -60 73 0 36 6 39 38 16 20 -14 23 -14 28 1 10 25 -19 47 -60
47 -38 0 -71 -21 -81 -51 -7 -23 -68 -21 -94 3 -16 15 -30 18 -68 13 -32 -4
-56 -1 -73 8 -44 25 -95 19 -135 -17 -64 -56 -125 -204 -125 -303 0 -42 -5
-56 -25 -75 -14 -13 -27 -21 -30 -18 -5 5 21 538 27 542 8 7 127 36 146 36 12
0 22 3 22 8 0 4 28 18 63 31 213 81 555 293 694 430 39 38 168 212 254 341
114 172 270 571 320 817 30 151 37 414 15 583 -44 338 -143 588 -371 940 -212
327 -515 583 -908 769 -326 154 -601 222 -912 225 -353 3 -592 -50 -900 -199
-139 -67 -198 -106 -178 -118 8 -5 187 -22 336 -32 111 -8 218 -28 311 -59 88
-30 186 -73 186 -81 0 -4 -69 -140 -154 -303 -367 -706 -434 -837 -429 -845 2
-4 80 -7 171 -6 l167 1 3 -106 c3 -101 -2 -118 -23 -97 -6 6 -70 -26 -164 -81
l-154 -90 -51 51 c-28 28 -56 51 -61 51 -5 0 -25 -16 -45 -35 l-36 -35 -164
281 c-90 154 -167 282 -170 284 -3 2 -47 -76 -99 -173 -52 -98 -134 -253 -184
-346 l-90 -168 -131 130 -131 130 -228 -61 -228 -61 -67 67 -67 66 -158 -91
-158 -91 -55 54 -54 53 -32 -32 -33 -32 -70 70 -70 69 -154 -90 -155 -90 -51
51 c-28 27 -55 50 -60 50 -6 0 -66 -56 -135 -125 l-125 -125 59 -59 c47 -48
57 -63 54 -87 -2 -24 -9 -30 -40 -37 l-38 -9 0 -134 c0 -74 3 -134 8 -134 4 0
21 4 39 9 l31 9 4 -179 3 -179 100 -100 101 -101 247 67 248 67 67 -66 67 -67
244 66 244 66 78 -78 79 -79 103 103 103 102 51 -52 52 -53 -189 -260 c-105
-143 -190 -263 -190 -267 0 -5 89 -8 198 -8 l197 0 48 -482 c27 -266 51 -494
54 -509 5 -25 2 -26 -144 -66 l-148 -40 -58 56 -57 56 9 49 c12 64 20 71 64
50 20 -10 39 -15 43 -12 14 14 -10 48 -86 123 -82 80 -128 157 -174 286 -9 26
-33 68 -53 93 -39 51 -39 67 1 41 29 -19 49 -12 41 16 -11 34 4 41 41 19 41
-26 57 -20 44 16 -13 33 -13 64 0 64 5 0 24 -16 41 -35 55 -60 66 -38 24 45
-34 67 -68 84 -150 75 -57 -6 -70 -3 -140 27 -65 28 -80 39 -96 70 -11 21 -31
45 -45 55 -14 9 -41 37 -61 62 -75 99 -171 119 -273 59 -98 -60 -117 -136 -66
-274 30 -83 34 -160 10 -207 -9 -17 -38 -59 -65 -94 -64 -84 -72 -134 -37
-225 6 -16 16 -28 22 -28 7 0 17 12 23 28 l10 27 13 -32 c20 -54 50 -38 50 27
0 30 19 53 36 42 6 -4 23 -26 38 -50 15 -24 32 -42 39 -39 7 2 13 29 15 65 6
120 52 56 77 -106 8 -53 21 -128 30 -167 8 -38 15 -91 15 -116 l0 -46 -106
-28 -105 -28 -59 58 -58 57 -149 -40 -148 -40 -70 69 c-54 53 -73 67 -82 58
-18 -18 -31 -3 -131 149 -311 474 -481 949 -554 1542 -17 139 -17 592 0 735
98 820 437 1530 1002 2095 600 600 1358 943 2235 1013 99 8 386 6 502 -4z
m538 -1558 c62 -47 221 -197 330 -311 130 -135 257 -303 322 -425 124 -230
164 -321 188 -425 18 -81 20 -131 3 -126 -48 15 -49 15 -38 36 8 16 8 18 -4
14 -8 -3 -19 -18 -24 -32 -10 -27 -10 -27 -31 21 -12 26 -25 70 -28 97 -6 52
-17 65 -26 31 -5 -19 -7 -19 -52 -5 -62 18 -109 18 -145 -1 -37 -19 -38 -31
-2 -40 37 -9 62 -34 62 -61 0 -17 7 -24 29 -29 41 -9 75 -48 69 -79 -5 -23 -2
-26 23 -26 32 0 54 -30 46 -62 -12 -43 25 -66 53 -33 17 20 54 19 71 -2 11
-12 13 -45 11 -132 -4 -142 -24 -265 -61 -375 -45 -133 -48 -133 -55 0 -13
232 -18 304 -25 303 -3 0 -55 -60 -116 -132 -60 -72 -159 -189 -218 -259 -91
-108 -105 -129 -90 -135 10 -3 41 -16 70 -29 l52 -22 -31 -71 c-18 -39 -35
-71 -38 -71 -3 0 -41 49 -83 110 l-77 109 0 96 0 95 -38 0 -39 0 -6 338 c-4
185 -7 403 -7 485 l0 147 150 0 c83 0 150 3 150 6 0 5 -306 672 -436 953 -24
52 -44 96 -44 98 0 7 20 -7 85 -56z m-1777 -1611 c-29 -53 -34 -58 -47 -45
-14 13 -10 20 29 60 24 25 46 45 48 45 2 0 -11 -27 -30 -60z m-1348 -69 c0
-23 -6 -31 -30 -40 -25 -8 -30 -7 -30 6 0 18 38 63 52 63 4 0 8 -13 8 -29z
m630 -221 l0 -250 -22 -9 c-13 -5 -64 -19 -115 -32 -90 -23 -92 -23 -113 -4
-19 17 -20 27 -18 164 l3 145 60 17 c33 10 79 23 103 29 l42 11 0 66 c0 55 4
71 22 90 12 13 25 23 30 23 4 0 8 -113 8 -250z m2026 154 c-3 -8 -10 -14 -16
-14 -14 0 -13 53 3 69 10 10 13 7 15 -14 2 -15 1 -33 -2 -41z m-1106 -244 l0
-260 -42 0 c-34 0 -49 6 -75 32 l-33 32 0 216 c0 155 -3 219 -12 228 -9 9 7
12 75 12 l87 0 0 -260z m-1630 69 c0 -88 -1 -88 64 -63 14 5 16 -6 16 -83 l0
-89 -115 -30 c-151 -40 -145 -46 -145 153 l0 150 73 20 c113 32 107 36 107
-58z m2628 19 l-3 -43 -57 -3 -58 -3 0 35 c0 31 3 35 38 44 20 5 47 10 60 11
21 1 23 -3 20 -41z m-1518 -160 c0 -160 0 -161 -20 -143 -18 16 -20 31 -20
143 0 103 3 129 17 144 9 10 18 18 20 18 1 0 3 -73 3 -162z m2733 -215 c3 -5
-9 -28 -25 -53 -16 -25 -27 -36 -24 -25 2 11 7 35 11 53 6 29 27 43 38 25z
m-3422 -774 c36 -25 65 -77 51 -91 -7 -7 -32 1 -76 22 -79 39 -94 54 -76 75
18 21 67 19 101 -6z m-137 -75 c20 -19 20 -28 1 -44 -7 -6 -17 -32 -21 -56 -4
-26 -12 -44 -19 -44 -18 0 -25 23 -25 84 0 70 28 97 64 60z m141 -111 c40 -40
85 -142 92 -207 5 -52 4 -56 -15 -56 -16 0 -24 12 -38 52 -11 35 -32 66 -64
97 -70 68 -82 97 -54 125 23 23 48 20 79 -11z m3838 -661 c31 -32 32 -58 6
-75 -26 -16 -45 -2 -64 47 -31 81 -4 94 58 28z m-99 -116 c16 -21 48 -52 72
-69 l44 -31 -22 -23 -22 -24 -57 58 c-56 56 -63 70 -60 123 1 26 3 25 45 -34z
m-3300 29 c17 -13 12 -21 -88 -116 -78 -74 -106 -107 -103 -121 8 -28 -16 -21
-52 16 -28 29 -31 37 -22 54 6 11 11 34 11 49 0 16 6 38 14 48 13 19 15 18 55
-10 55 -38 90 -28 109 30 22 66 40 78 76 50z m3686 -5 c13 -8 12 -12 -5 -30
l-21 -20 -29 30 -29 30 35 0 c19 0 41 -5 49 -10z m230 -401 c0 -50 -2 -55 -52
-103 l-53 -51 -3 134 c-3 169 4 182 65 118 39 -42 43 -50 43 -98z m-4482 -1
c18 -18 14 -74 -8 -118 -11 -22 -23 -40 -25 -40 -3 0 -5 38 -5 85 0 86 8 103
38 73z m-821 -534 c-2 -2 -42 -14 -90 -26 -84 -22 -86 -22 -107 -3 -19 17 -20
27 -18 164 l3 145 60 17 c33 10 79 23 103 29 l42 11 2 72 c2 40 4 -36 5 -167
2 -131 2 -241 0 -242z m5272 -50 l-22 -23 -28 22 c-28 22 -28 22 -28 144 -1
136 12 190 65 259 l29 37 3 -208 c2 -202 2 -209 -19 -231z m-3969 142 l0 -165
-47 27 c-27 14 -51 31 -55 36 -4 6 -8 68 -8 139 l0 127 55 0 55 0 0 -164z
m1290 14 c0 -125 -2 -150 -15 -150 -27 0 -35 38 -35 169 l0 131 25 0 25 0 0
-150z m880 -5 c0 -85 -3 -155 -7 -155 -3 0 -15 7 -25 17 -16 14 -18 33 -18
143 0 126 6 150 37 150 10 0 13 -34 13 -155z m470 -37 l0 -192 -55 54 -55 54
0 138 0 138 55 0 55 0 0 -192z m880 112 c0 -69 -3 -81 -20 -90 -19 -10 -20 -8
-20 80 0 83 1 90 20 90 18 0 20 -7 20 -80z m-4 -187 c-7 -7 -36 16 -36 27 0 5
8 10 18 12 16 3 31 -27 18 -39z"/>
</g>
</svg>
